<svg width="720" height="520" viewBox="0 0 720 520" fill="none" xmlns="http://www.w3.org/2000/svg">
  <rect width="720" height="520" rx="36" fill="#EEF5FC"/>
  <rect x="34" y="34" width="652" height="452" rx="30" fill="#FFFFFF"/>
  <rect x="68" y="68" width="584" height="82" rx="22" fill="#E4F0FF"/>
  <rect x="96" y="97" width="148" height="20" rx="10" fill="#2F7EE6"/>
  <rect x="530" y="97" width="96" height="20" rx="10" fill="#92C4FF"/>
  <rect x="68" y="182" width="270" height="120" rx="22" fill="#F5FAFF"/>
  <rect x="364" y="182" width="288" height="120" rx="22" fill="#EAF3FF"/>
  <rect x="68" y="326" width="584" height="126" rx="22" fill="#F9FCFF"/>
  <path d="M112 244C144 220 176 220 210 228C242 236 270 244 304 220" stroke="#2F7EE6" stroke-width="12" stroke-linecap="round"/>
  <circle cx="208" cy="228" r="14" fill="#92C4FF"/>
  <rect x="404" y="212" width="58" height="56" rx="16" fill="#2F7EE6"/>
  <rect x="478" y="194" width="58" height="74" rx="16" fill="#92C4FF"/>
  <rect x="552" y="224" width="58" height="44" rx="16" fill="#D7EBFF"/>
</svg>
